<?xml version="1.0" standalone="no"?>
<!DOCTYPE svg PUBLIC "-//W3C//DTD SVG 20010904//EN"
 "http://www.w3.org/TR/2001/REC-SVG-20010904/DTD/svg10.dtd">
<svg version="1.0" xmlns="http://www.w3.org/2000/svg"
 width="700.000000pt" height="700.000000pt" viewBox="0 0 700.000000 700.000000"
 preserveAspectRatio="xMidYMid meet">
<metadata>
Created by potrace 1.11, written by Peter Selinger 2001-2013
</metadata>
<g transform="translate(0.000000,700.000000) scale(0.100000,-0.100000)"
fill="#000000" stroke="none">
<path d="M3367 6994 c-1 -1 -49 -5 -105 -8 -57 -4 -118 -8 -135 -11 -18 -2
-50 -7 -72 -10 -77 -9 -146 -20 -195 -30 -14 -2 -38 -7 -55 -11 -16 -3 -84
-19 -150 -35 -871 -216 -1623 -764 -2104 -1533 -256 -409 -437 -904 -497
-1361 -3 -22 -7 -51 -10 -65 -26 -163 -26 -677 2 -860 75 -499 204 -884 429
-1285 93 -165 242 -379 369 -530 79 -93 342 -353 436 -431 521 -429 1168 -707
1815 -780 33 -3 69 -9 80 -11 37 -9 539 -11 610 -3 39 4 102 11 140 15 39 3
129 17 201 30 904 166 1696 670 2222 1413 48 67 96 138 107 156 98 165 127
217 181 326 107 217 215 509 259 703 40 180 58 280 75 422 34 276 31 640 -6
885 -4 25 -8 54 -9 65 -4 35 -36 198 -55 275 -90 377 -207 654 -444 1054 -54
92 -259 365 -334 445 -129 139 -272 277 -367 356 -33 28 -62 53 -65 56 -24 29
-285 207 -425 291 -252 151 -707 333 -956 382 -13 2 -56 11 -95 20 -109 23
-337 55 -454 62 -93 6 -388 12 -393 8z"/>
</g>
</svg>
