<?xml version="1.0" standalone="no"?>
<!DOCTYPE svg PUBLIC "-//W3C//DTD SVG 20010904//EN"
 "http://www.w3.org/TR/2001/REC-SVG-20010904/DTD/svg10.dtd">
<svg version="1.0" xmlns="http://www.w3.org/2000/svg"
 width="700.000000pt" height="700.000000pt" viewBox="0 0 700.000000 700.000000"
 preserveAspectRatio="xMidYMid meet">
<metadata>
Created by potrace 1.11, written by Peter Selinger 2001-2013
</metadata>
<g transform="translate(0.000000,700.000000) scale(0.100000,-0.100000)"
fill="#000000" stroke="none">
<path d="M3298 6996 c-1 -2 -41 -6 -88 -10 -47 -3 -101 -8 -120 -11 -19 -3
-53 -8 -75 -11 -22 -3 -57 -8 -77 -10 -32 -5 -228 -46 -280 -58 -36 -9 -173
-48 -187 -54 -9 -3 -12 -1 -8 5 9 15 -223 -67 -368 -130 -99 -43 -312 -155
-420 -221 -351 -215 -643 -475 -926 -823 -227 -279 -461 -720 -582 -1098 -65
-204 -126 -488 -143 -660 -2 -22 -7 -76 -11 -120 -16 -161 -9 -516 13 -715 5
-48 44 -274 58 -337 20 -94 98 -360 124 -423 6 -14 20 -52 33 -85 115 -311
361 -728 570 -970 204 -235 383 -405 589 -559 41 -30 80 -59 85 -63 6 -5 48
-33 95 -64 237 -155 504 -288 762 -379 88 -30 277 -88 312 -94 12 -2 50 -11
86 -20 120 -29 309 -59 475 -74 158 -14 587 -6 707 13 13 2 46 7 73 10 71 10
87 13 115 18 14 3 43 8 65 12 264 48 589 157 862 291 259 126 455 251 680 430
87 70 396 369 448 434 11 14 48 60 83 102 61 75 74 97 49 81 -6 -4 2 11 19 32
46 59 146 211 205 311 50 84 189 355 189 368 0 4 9 25 20 49 71 152 185 540
216 732 4 28 8 52 9 55 4 19 16 105 20 155 3 33 8 71 11 85 12 55 11 520 -2
648 -18 191 -70 482 -104 582 -4 14 -18 59 -30 100 -90 309 -245 639 -432 918
-62 93 -177 250 -203 278 -5 7 -35 40 -65 75 -74 87 -289 301 -375 375 -265
226 -608 437 -909 560 -34 14 -70 29 -81 34 -73 32 -359 123 -460 145 -61 14
-219 44 -250 49 -22 2 -47 7 -55 10 -8 2 -49 8 -90 12 -41 3 -91 8 -110 11
-41 5 -517 13 -522 9z"/>
</g>
</svg>
