<?xml version="1.0" standalone="no"?>
<!DOCTYPE svg PUBLIC "-//W3C//DTD SVG 20010904//EN"
 "http://www.w3.org/TR/2001/REC-SVG-20010904/DTD/svg10.dtd">
<svg version="1.0" xmlns="http://www.w3.org/2000/svg"
 width="700.000000pt" height="700.000000pt" viewBox="0 0 700.000000 700.000000"
 preserveAspectRatio="xMidYMid meet">
<metadata>
Created by potrace 1.11, written by Peter Selinger 2001-2013
</metadata>
<g transform="translate(0.000000,700.000000) scale(0.100000,-0.100000)"
fill="#000000" stroke="none">
<path d="M3367 6994 c-1 -1 -47 -5 -103 -8 -108 -7 -138 -10 -284 -31 -575
-86 -1125 -319 -1592 -676 -611 -468 -1056 -1136 -1252 -1879 -19 -74 -38
-148 -41 -165 -10 -56 -16 -90 -25 -130 -5 -22 -12 -67 -15 -100 -4 -33 -9
-69 -11 -79 -26 -140 -26 -650 1 -851 89 -673 367 -1308 799 -1820 79 -93 342
-353 436 -431 472 -388 1030 -647 1615 -749 77 -13 167 -27 200 -31 33 -3 69
-9 80 -11 37 -9 539 -11 616 -3 42 5 105 11 140 15 192 20 460 81 680 155 786
264 1441 786 1876 1497 68 111 174 312 212 403 13 30 29 69 36 85 109 257 199
601 231 875 2 25 7 58 9 74 23 141 23 648 0 761 -2 11 -7 45 -11 75 -8 72 -17
126 -30 195 -2 11 -7 34 -10 50 -3 17 -18 82 -34 145 -176 704 -572 1339
-1137 1819 -60 51 -170 133 -333 248 -121 86 -431 246 -620 321 -168 66 -398
139 -490 156 -14 2 -54 11 -90 19 -89 21 -332 55 -455 63 -94 6 -393 12 -398
8z"/>
</g>
</svg>
