<?xml version="1.0" standalone="no"?>
<!DOCTYPE svg PUBLIC "-//W3C//DTD SVG 20010904//EN"
 "http://www.w3.org/TR/2001/REC-SVG-20010904/DTD/svg10.dtd">
<svg version="1.0" xmlns="http://www.w3.org/2000/svg"
 width="424.000000pt" height="424.000000pt" viewBox="0 0 424.000000 424.000000"
 preserveAspectRatio="xMidYMid meet">
<metadata>
Created by potrace 1.11, written by Peter Selinger 2001-2013
</metadata>
<g transform="translate(0.000000,424.000000) scale(0.100000,-0.100000)"
fill="#000000" stroke="none">
<path d="M1698 4225 c-2 -1 -30 -5 -63 -9 -175 -18 -209 -33 -287 -118 -144
-159 -238 -314 -315 -517 -26 -70 -69 -233 -78 -296 -3 -22 -7 -49 -10 -60 -9
-47 -16 -207 -9 -202 5 2 124 61 264 130 428 210 1070 526 1155 569 86 43 117
70 108 93 -11 31 -276 91 -418 95 l-30 1 30 25 c51 43 135 94 229 140 107 53
121 68 92 96 -12 13 -51 22 -183 44 -31 6 -479 14 -485 9z"/>
<path d="M3090 3849 c-17 -11 -429 -209 -434 -209 -2 0 -57 -25 -122 -56 -101
-48 -358 -167 -564 -262 -30 -13 -111 -51 -179 -83 -68 -33 -125 -59 -127 -59
-3 0 -113 -54 -247 -119 -277 -136 -459 -236 -534 -292 -78 -58 -157 -190
-224 -371 -25 -68 -36 -108 -65 -243 -10 -48 -13 -335 -4 -390 16 -96 20 -112
45 -199 76 -263 257 -523 480 -690 537 -403 1278 -352 1750 119 498 498 535
1259 89 1813 -22 27 -24 32 -9 32 9 0 65 12 124 26 58 14 113 27 121 29 8 2
53 13 100 25 47 12 96 24 109 26 13 3 49 11 80 19 31 7 112 27 181 44 184 45
210 53 210 61 0 3 -24 54 -52 111 -112 222 -297 416 -579 605 -112 75 -123 80
-149 63z m-493 -1186 c193 -182 300 -419 308 -683 12 -425 -232 -798 -625
-952 -57 -22 -94 -33 -190 -54 -54 -12 -249 -11 -328 1 -87 14 -238 60 -247
76 -4 5 -13 9 -22 9 -25 0 -181 107 -246 168 -290 274 -388 704 -245 1072 12
30 24 59 28 63 4 4 81 26 171 47 90 22 175 43 189 47 36 9 42 11 70 16 14 3
99 24 190 46 634 157 847 209 860 210 9 1 48 -29 87 -66z"/>
<path d="M1848 2399 c-203 -30 -375 -170 -447 -362 -28 -78 -35 -117 -34 -210
3 -211 125 -401 318 -493 67 -32 84 -37 165 -51 171 -31 364 38 490 174 104
114 151 232 151 384 1 340 -307 607 -643 558z m215 -135 c166 -55 275 -183
306 -362 32 -180 -77 -381 -249 -461 -133 -62 -258 -62 -386 0 -273 132 -333
503 -116 714 119 117 293 159 445 109z"/>
<path d="M1889 2124 l-34 -12 31 -1 c55 -2 129 -30 171 -66 53 -45 93 -124 93
-184 l1 -46 15 28 c8 15 15 51 15 81 2 151 -146 253 -292 200z"/>
<path d="M374 1285 c4 -104 9 -212 11 -240 14 -137 22 -202 40 -304 40 -231
122 -463 231 -659 l35 -63 87 47 c48 26 121 65 162 87 41 22 122 65 180 97 58
31 158 85 222 120 l118 63 -104 42 c-337 137 -612 401 -907 871 l-81 129 6
-190z"/>
</g>
</svg>
