<?xml version="1.0" encoding="UTF-8" standalone="no"?>
<svg
   xmlns:dc="http://purl.org/dc/elements/1.1/"
   xmlns:cc="http://creativecommons.org/ns#"
   xmlns:rdf="http://www.w3.org/1999/02/22-rdf-syntax-ns#"
   xmlns:svg="http://www.w3.org/2000/svg"
   xmlns="http://www.w3.org/2000/svg"
   id="svg8"
   version="1.1"
   viewBox="0 0 365.71457 365.71457"
   height="365.71457"
   width="365.71457">
  <defs
     id="defs2">
    <marker
       style="overflow:visible"
       id="marker1119"
       refX="0"
       refY="0"
       orient="auto">
      <path
         transform="matrix(0.8,0,0,0.8,10,0)"
         style="fill:#545454;fill-opacity:1;fill-rule:evenodd;stroke:none;stroke-width:1.00000003pt;stroke-opacity:1"
         d="M 0,0 5,-5 -12.5,0 5,5 Z"
         id="path1117" />
    </marker>
    <marker
       style="overflow:visible"
       id="Arrow1Lstart"
       refX="0"
       refY="0"
       orient="auto">
      <path
         transform="matrix(0.8,0,0,0.8,10,0)"
         style="fill:#545454;fill-opacity:1;fill-rule:evenodd;stroke:none;stroke-width:1.00000003pt;stroke-opacity:1"
         d="M 0,0 5,-5 -12.5,0 5,5 Z"
         id="path841" />
    </marker>
  </defs>
  <metadata
     id="metadata5">
    <rdf:RDF>
      <cc:Work
         rdf:about="">
        <dc:format>image/svg+xml</dc:format>
        <dc:type
           rdf:resource="http://purl.org/dc/dcmitype/StillImage" />
        <dc:title></dc:title>
      </cc:Work>
    </rdf:RDF>
  </metadata>
  <g
     transform="translate(-329.14258,-355.2095)"
     id="layer1">
    <circle
       style="display:none;opacity:0.3;fill:#545454;fill-opacity:0.37837842;stroke:none;stroke-width:40;stroke-miterlimit:4;stroke-dasharray:none;stroke-opacity:1;paint-order:normal"
       id="circle866"
       cx="520"
       cy="546.06665"
       r="182.85715" />
    <circle
       r="182.85715"
       cy="538.06665"
       cx="512"
       id="path830"
       style="display:inline;opacity:0.3;fill:#545454;fill-opacity:1;stroke:none;stroke-width:40;stroke-miterlimit:4;stroke-dasharray:none;stroke-opacity:1;paint-order:normal" />
    <path
       id="path868"
       d="m 462.91406,372.58813 c -74.96202,24.63327 -125.66809,94.57293 -125.77148,173.47852 -1.5e-4,100.98943 75.80708,166.69513 176.7965,166.69498 56.42586,-0.0851 89.44908,-6.01259 124.02547,-50.60359 -18.41053,6.13499 -11.41631,5.25963 -30.82197,5.33634 -100.98866,1.5e-4 -182.85649,-81.8668 -182.85742,-182.85546 0.0788,-40.60312 13.66935,-80.02516 38.6289,-112.05079 z"
       style="display:inline;opacity:0.3;fill:#545454;fill-opacity:1;stroke:none;stroke-width:40;stroke-miterlimit:4;stroke-dasharray:none;stroke-opacity:1;paint-order:normal" />
    <path
       id="circle837"
       transform="translate(0,26.06665)"
       d="M 454.91406,338.52148 A 182.85715,182.85715 0 0 0 329.14258,512 182.85715,182.85715 0 0 0 512,694.85742 182.85715,182.85715 0 0 0 656.22852,624.05078 182.85715,182.85715 0 0 1 599.14258,633.42773 182.85715,182.85715 0 0 1 416.28516,450.57227 182.85715,182.85715 0 0 1 454.91406,338.52148 Z"
       style="display:inline;fill:#545454;fill-opacity:1;stroke:none;stroke-width:40;stroke-miterlimit:4;stroke-dasharray:none;stroke-opacity:1;paint-order:normal" />
  </g>
</svg>
