<?xml version="1.0" encoding="UTF-8" standalone="no"?>
<!-- Created with Inkscape (http://www.inkscape.org/) -->

<svg
   xmlns:dc="http://purl.org/dc/elements/1.1/"
   xmlns:cc="http://creativecommons.org/ns#"
   xmlns:rdf="http://www.w3.org/1999/02/22-rdf-syntax-ns#"
   xmlns:svg="http://www.w3.org/2000/svg"
   xmlns="http://www.w3.org/2000/svg"
   xmlns:sodipodi="http://sodipodi.sourceforge.net/DTD/sodipodi-0.dtd"
   xmlns:inkscape="http://www.inkscape.org/namespaces/inkscape"
   width="210mm"
   height="297mm"
   viewBox="0 0 210 297"
   version="1.1"
   id="svg8"
   inkscape:label="beforecut"
   inkscape:version="0.92.4 (5da689c313, 2019-01-14)"
   sodipodi:docname="nightowl.svg"
   inkscape:export-filename="C:\Users\00jkn\code\nightowl\svg\nightowl.svg.2019_12_06_11_32_51.0.png"
   inkscape:export-xdpi="128"
   inkscape:export-ydpi="128">
  <defs
     id="defs2">
    <inkscape:perspective
       sodipodi:type="inkscape:persp3d"
       inkscape:vp_x="0 : 148.5 : 1"
       inkscape:vp_y="0 : 1000 : 0"
       inkscape:vp_z="210 : 148.5 : 1"
       inkscape:persp3d-origin="105 : 99 : 1"
       id="perspective4640" />
  </defs>
  <sodipodi:namedview
     id="base"
     pagecolor="#ffffff"
     bordercolor="#666666"
     borderopacity="1.0"
     inkscape:pageopacity="0.0"
     inkscape:pageshadow="2"
     inkscape:zoom="2.8284271"
     inkscape:cx="246.66064"
     inkscape:cy="560.45688"
     inkscape:document-units="mm"
     inkscape:current-layer="layer10"
     showgrid="false"
     inkscape:window-width="1920"
     inkscape:window-height="1027"
     inkscape:window-x="-8"
     inkscape:window-y="-8"
     inkscape:window-maximized="1" />
  <metadata
     id="metadata5">
    <rdf:RDF>
      <cc:Work
         rdf:about="">
        <dc:format>image/svg+xml</dc:format>
        <dc:type
           rdf:resource="http://purl.org/dc/dcmitype/StillImage" />
        <dc:title></dc:title>
      </cc:Work>
    </rdf:RDF>
  </metadata>
  <g
     id="layer10"
     inkscape:label="font"
     style="display:inline"
     transform="translate(-9.806224,19.333398)">
    <path
       style="font-style:normal;font-variant:normal;font-weight:500;font-stretch:normal;font-size:10.58333302px;line-height:1.25;font-family:azmoonfleet;-inkscape-font-specification:'azmoonfleet, Medium';font-variant-ligatures:normal;font-variant-caps:normal;font-variant-numeric:normal;font-feature-settings:normal;text-align:start;letter-spacing:0px;word-spacing:0px;writing-mode:lr-tb;text-anchor:start;display:inline;fill:#9fffcb;fill-opacity:1;stroke:none;stroke-width:0.26458332;stroke-miterlimit:4;stroke-dasharray:none;stroke-opacity:1"
       d="m 120.26324,145.70085 c -0.47256,-0.0316 -0.85169,0.11184 -1.13523,0.42687 -0.22054,0.28354 -0.29837,1.35319 -0.23536,3.21191 0.0945,1.85873 0.31337,3.66975 0.65991,5.43397 0.31505,1.6067 0.59941,4.08122 0.85145,7.42063 0.18901,2.96136 0.37859,4.945 0.56762,5.95313 0.22052,0.97661 0.55112,1.63783 0.99219,1.98437 0.40955,0.34655 0.70856,0.52147 0.89757,0.52147 0.22054,-0.0316 0.53651,-0.23803 0.94604,-0.61607 0.28353,-0.31504 0.43921,-0.64564 0.47073,-0.9922 0.063,-0.37804 0.0483,-1.22883 -0.0463,-2.55198 -0.15748,-1.95325 -0.15748,-3.46526 0,-4.5364 0.18903,-1.10261 0.55124,-1.92181 1.08679,-2.45738 0.63008,-0.56706 1.13332,-0.84913 1.51137,-0.84913 0.63008,0 1.07242,0.39381 1.32445,1.18141 0.25202,0.75609 0.42465,2.25114 0.51917,4.4879 0.0945,1.73272 0.1893,2.89947 0.28382,3.49804 0.0945,0.56707 0.26713,0.99246 0.51916,1.27601 0.37804,0.44105 0.7572,0.66223 1.13525,0.66223 0.53555,0 0.88082,-0.37916 1.03833,-1.13525 0.15748,-0.75609 0.18911,-2.2681 0.0946,-4.53638 -0.063,-2.17376 -0.23562,-3.82679 -0.51915,-4.96093 -0.28355,-1.16565 -0.74054,-2.01644 -1.37061,-2.552 -0.59858,-0.53557 -1.46401,-0.85153 -2.59814,-0.94605 -1.00813,-0.0945 -1.90747,0.078 -2.69508,0.51917 -0.8191,0.40955 -1.25912,0.56753 -1.32215,0.47302 -0.0945,-0.0945 -0.29872,-0.95994 -0.61376,-2.59814 -0.28354,-1.6382 -0.52166,-3.24499 -0.71069,-4.82018 -0.25202,-1.66972 -0.47088,-2.67848 -0.65991,-3.02502 -0.18902,-0.31505 -0.51963,-0.47302 -0.99219,-0.47302 z m -9.5596,5.044 c -0.31505,0.008 -0.63832,0.0455 -0.96912,0.1085 -1.6697,0.44105 -3.04067,1.73188 -4.11179,3.87413 -0.40957,0.75609 -0.67699,1.40267 -0.80299,1.93824 -0.0944,0.50405 -0.14073,1.27469 -0.14073,2.31433 0,2.04776 0.33061,3.87572 0.99219,5.48242 0.69308,1.60669 1.60707,2.69329 2.7412,3.26037 0.6931,0.37804 1.52693,0.53603 2.50354,0.47301 1.00813,-0.063 1.85892,-0.31577 2.552,-0.75683 0.7246,-0.53555 1.13303,-0.80297 1.22755,-0.80297 0.0945,0 0.14313,0.39379 0.14313,1.18139 0.0316,0.78761 0.0144,1.62145 -0.0483,2.50354 -0.063,0.88211 -0.14089,1.45084 -0.23536,1.70287 -0.18903,0.56708 -0.55122,0.96087 -1.08679,1.18141 -0.37805,0.15748 -0.74025,0.20375 -1.08679,0.14073 -0.31504,-0.0945 -0.94466,-0.41048 -1.88977,-0.94604 -0.8506,-0.47256 -1.45093,-0.75461 -1.79749,-0.84913 -0.34653,-0.0945 -0.59698,-0.0798 -0.75451,0.0463 -0.44105,0.34652 -0.59903,0.82049 -0.47303,1.41905 0.12605,0.56706 0.50286,1.11654 1.13295,1.65211 1.70121,1.51219 3.40279,2.1125 5.104,1.79747 1.70121,-0.31504 2.96275,-1.45019 3.78185,-3.40344 0.56706,-1.32316 0.6765,-5.05691 0.32996,-11.20017 -0.34656,-6.17477 -0.84978,-9.60721 -1.51137,-10.3003 -0.18901,-0.15748 -0.58281,-0.2839 -1.18139,-0.37842 -0.59858,-0.0945 -1.29139,-0.17234 -2.07898,-0.23536 -0.75609,-0.063 -1.23003,-0.11153 -1.41906,-0.14296 -0.29928,-0.0472 -0.60562,-0.068 -0.92064,-0.06 z m 29.08494,0.1085 c -0.27567,0 -0.59298,0.20422 -0.95527,0.61377 -0.34654,0.31502 -0.71105,1.07104 -1.0891,2.26818 l -0.61377,1.65442 -1.84132,0.18921 c -0.78759,0.063 -1.35633,0.14088 -1.70287,0.23536 -0.31504,0.0945 -0.53391,0.23554 -0.65993,0.42456 -0.12604,0.15749 -0.1892,0.42493 -0.1892,0.80297 0,0.63008 0.18727,1.05547 0.56531,1.27601 0.37806,0.22052 1.04157,0.30067 1.98669,0.23766 l 1.60596,-0.0946 0.1892,4.63098 c 0.0316,2.01625 0.0948,3.37027 0.18922,4.06335 0.12605,0.69308 0.34488,1.32271 0.65991,1.88978 0.50407,0.94512 1.10439,1.60863 1.79749,1.98667 0.69308,0.37805 1.63635,0.56533 2.8335,0.56533 0.88209,0 1.48243,-0.0461 1.79747,-0.14073 0.31505,-0.0945 0.67724,-0.34729 1.08679,-0.75685 0.59858,-0.59856 0.89759,-1.19659 0.89759,-1.79517 0,-0.78759 -0.26742,-1.29081 -0.80299,-1.51134 -0.50405,-0.25203 -1.00959,-0.0795 -1.51367,0.51917 -0.37803,0.40955 -0.89822,0.61377 -1.55979,0.61377 -0.66159,-0.0316 -1.17946,-0.25268 -1.55751,-0.66223 -0.18903,-0.22052 -0.33236,-0.47099 -0.42688,-0.75453 -0.063,-0.28353 -0.1093,-0.70892 -0.14073,-1.276 -0.0316,-0.59856 -0.0485,-1.57574 -0.0485,-2.93041 v -4.34715 l 1.08681,-0.37842 c 0.40955,-0.12605 0.69391,-0.26706 0.85143,-0.42457 0.18902,-0.18903 0.29846,-0.4418 0.32996,-0.75683 0.0316,-0.34655 -0.0144,-0.59932 -0.14073,-0.75684 -0.0945,-0.18902 -0.36194,-0.3763 -0.80299,-0.56532 -0.53556,-0.18901 -0.85152,-0.37858 -0.94602,-0.56761 -0.063,-0.18903 -0.0461,-0.70921 0.0483,-1.55983 0.063,-0.88209 -0.0171,-1.5749 -0.23766,-2.07896 -0.18903,-0.40956 -0.42118,-0.61378 -0.69683,-0.61378 z m -28.16428,2.83349 c 0.88211,0 1.43389,0.14328 1.65441,0.42688 0.28353,0.34655 0.45616,1.19733 0.51917,2.552 0.0944,1.32317 0.0483,2.5508 -0.14073,3.68494 -0.31505,1.85873 -0.75739,3.1665 -1.32447,3.9226 -0.56706,0.72457 -1.30611,0.9604 -2.21972,0.70838 -0.53557,-0.12605 -1.02415,-0.62926 -1.46521,-1.51137 -0.44105,-0.91361 -0.70848,-1.96861 -0.80299,-3.16577 -0.12605,-1.35467 -0.0944,-2.41197 0.0946,-3.16806 0.22052,-0.7876 0.64593,-1.5436 1.27599,-2.2682 0.47256,-0.50405 0.84942,-0.81772 1.13295,-0.94373 0.28353,-0.15748 0.70893,-0.23767 1.27599,-0.23767 z m -11.39168,0.0485 c -0.252057,-0.0316 -0.582659,0.0949 -0.992209,0.37841 -0.25202,0.22054 -0.410013,0.72376 -0.473022,1.51137 -0.06302,0.75609 -0.09462,2.91465 -0.09462,6.4746 0,3.52843 0.03159,5.70165 0.09462,6.52074 0.06302,0.8191 0.221002,1.38553 0.473022,1.70056 0.346541,0.37805 0.740343,0.59923 1.181389,0.66224 0.44107,0.063 0.80326,-0.0464 1.08679,-0.32997 0.25205,-0.25203 0.31524,-2.96238 0.18922,-8.12902 -0.0945,-3.24489 -0.17235,-5.38651 -0.23536,-6.42613 -0.063,-1.03964 -0.20634,-1.66925 -0.42686,-1.88977 -0.25204,-0.31505 -0.51946,-0.47303 -0.80297,-0.47303 z m -15.785022,1.18139 c -0.220539,0 -0.490254,0.25277 -0.805283,0.75683 -0.22054,0.34656 -0.344627,0.7234 -0.376123,1.13295 0,0.40955 0.06318,1.26034 0.189202,2.552 0.252052,1.98474 0.376107,4.2065 0.376107,6.66381 0,2.48881 0.09478,3.96921 0.28382,4.44177 0.189027,0.53557 0.551237,0.88082 1.086789,1.03833 0.535568,0.12605 0.992571,-3.6e-4 1.370609,-0.37842 0.283532,-0.25202 0.456157,-0.64582 0.519166,-1.18139 0.06303,-0.56706 0.09462,-1.87254 0.09462,-3.92029 0,-3.05588 0.09478,-4.83761 0.283804,-5.34166 0.189026,-0.44106 0.614421,-1.00747 1.276007,-1.70057 0.724579,-0.69309 1.339559,-0.9921 1.843631,-0.89757 0.535552,0.063 1.055739,0.55158 1.559795,1.46519 0.378054,0.66159 0.599216,1.2912 0.662225,1.88977 0.06303,0.59858 0.09462,2.06433 0.09462,4.39562 0,2.17377 0.02936,3.55939 0.09222,4.15797 0.06303,0.59856 0.220986,0.97542 0.473006,1.13293 0.724595,0.44106 1.417391,0.018 2.078977,-1.27369 0.283532,-0.56707 0.441525,-2.30024 0.473038,-5.1986 0,-2.11075 -0.04627,-3.45013 -0.140729,-4.01721 -0.09446,-0.56707 -0.378868,-1.35465 -0.851427,-2.36278 -0.630074,-1.35467 -1.27663,-2.26866 -1.938216,-2.7412 -0.661587,-0.47256 -1.590223,-0.66215 -2.787362,-0.56764 -1.228651,0.0944 -2.125679,0.36194 -2.69276,0.80298 -1.102633,0.78761 -1.654412,0.86774 -1.654412,0.23766 0,-0.22052 -0.172625,-0.45633 -0.519166,-0.70837 -0.346541,-0.25203 -0.677143,-0.37842 -0.992172,-0.37842 z"
       id="text4663"
       inkscape:connector-curvature="0" />
    <path
       inkscape:connector-curvature="0"
       id="path1407"
       d="m 98.116154,142.08916 a 0.95298288,0.95298288 0 0 0 0.530546,-0.0717 1.1809972,1.1809972 0 0 1 -0.145104,-0.0117 1.1809972,1.1809972 0 0 1 -0.98968,-1.34549 1.1809972,1.1809972 0 0 1 0.03136,-0.14054 0.95298288,0.95298288 0 0 0 -0.225399,0.48364 0.95298288,0.95298288 0 0 0 0.798264,1.08576 z"
       style="display:none;fill:#9fffcb;fill-opacity:1;stroke:none;stroke-width:0.59078193;stroke-miterlimit:4;stroke-dasharray:none;stroke-opacity:1" />
    <text
       id="text1403"
       y="204.05066"
       x="90.016014"
       style="font-style:normal;font-variant:normal;font-weight:500;font-stretch:normal;font-size:47.2558136px;line-height:1.25;font-family:azmoonfleet;-inkscape-font-specification:'azmoonfleet, Medium';font-variant-ligatures:normal;font-variant-caps:normal;font-variant-numeric:normal;font-feature-settings:normal;text-align:start;letter-spacing:0px;word-spacing:0px;writing-mode:lr-tb;text-anchor:start;display:inline;fill:#1a7c6d;fill-opacity:1;stroke:none;stroke-width:1.18139529"
       xml:space="preserve"><tspan
         sodipodi:role="line"
         id="tspan1414"
         x="90.016014"
         y="204.05066"
         style="stroke-width:1.18139529">owl</tspan></text>
  </g>
  <path
     style="display:inline;fill:#9fffcb;fill-opacity:1;stroke:none;stroke-width:2.36279058;stroke-miterlimit:4;stroke-dasharray:none;stroke-opacity:1"
     d="m 90.321613,163.44128 a 3.8113877,3.8113877 0 0 0 -2.983489,3.71723 3.8113877,3.8113877 0 0 0 3.811844,3.81184 3.8113877,3.8113877 0 0 0 2.376646,-0.83528 3.8113877,3.8113877 0 0 1 -0.826057,0.0969 3.8113877,3.8113877 0 0 1 -3.811844,-3.81185 3.8113877,3.8113877 0 0 1 1.4329,-2.97888 z"
     id="path1421"
     inkscape:connector-curvature="0"
     inkscape:label="font moon" />
  <g
     inkscape:groupmode="layer"
     id="layer9"
     inkscape:label="nose">
    <path
       style="fill:#1a7c6d;fill-opacity:1;stroke:none;stroke-width:2.36279058;stroke-miterlimit:4;stroke-dasharray:none;stroke-opacity:1"
       inkscape:transform-center-x="5.5669635"
       inkscape:transform-center-y="-0.17482314"
       d="m 70.294921,130.91764 v 0 c 5.379218,8.86121 11.207349,17.23714 21.654503,20.61951 l -15.273316,8.21465 c -5.696497,-9.35022 -6.302988,-19.07288 -6.381187,-28.83416 z"
       id="rect4635"
       inkscape:connector-curvature="0"
       sodipodi:nodetypes="ccccc" />
  </g>
  <g
     inkscape:groupmode="layer"
     id="layer6"
     inkscape:label="hair"
     style="display:inline">
    <path
       style="fill:#1a7c6d;fill-opacity:1;stroke:none;stroke-width:1.34615278;stroke-miterlimit:4;stroke-dasharray:none;stroke-opacity:1"
       d="m 91.005604,77.483711 c 1.94919,-1.253207 12.483696,-1.899189 18.464246,-0.402466 0.9077,0.302839 0.90001,1.067211 0.01,1.517752 -0.6711,0.354982 -4.48039,1.800662 -6.5112,3.970156 4.09468,0.176789 5.93735,0.691423 8.28216,1.427746 0.84004,0.362656 0.78593,1.103734 0.005,1.50328 L 81.436484,100.22279 c -0.07132,-3.788232 0.955363,-14.590833 9.56884,-22.738888 z"
       id="rect4592"
       inkscape:connector-curvature="0"
       sodipodi:nodetypes="ccccccccc" />
  </g>
  <g
     inkscape:groupmode="layer"
     id="layer5"
     inkscape:label="moon"
     style="display:inline">
    <path
       style="fill:#1a7c6d;fill-opacity:1;stroke:none;stroke-width:2.63791013;stroke-miterlimit:4;stroke-dasharray:none;stroke-opacity:1"
       d="m 102.02463,117.68384 a 4.2551794,4.2551794 0 0 0 -2.293556,0.67376 5.2732902,5.2732902 0 0 1 0.648386,-0.0461 5.2732902,5.2732902 0 0 1 5.27473,5.27242 5.2732902,5.2732902 0 0 1 -0.0439,0.64147 4.2551794,4.2551794 0 0 0 0.66916,-2.28666 4.2551794,4.2551794 0 0 0 -4.25488,-4.25485 z"
       id="path4587"
       inkscape:connector-curvature="0" />
  </g>
  <g
     inkscape:groupmode="layer"
     id="layer4"
     inkscape:label="innereye"
     style="display:inline">
    <circle
       style="display:inline;fill:none;fill-opacity:1;stroke:#1a7c6d;stroke-width:2.36279106;stroke-miterlimit:4;stroke-dasharray:none;stroke-opacity:1"
       id="path4573"
       cx="101.21569"
       cy="123.63644"
       r="10.024472" />
  </g>
  <g
     style="display:inline;opacity:1"
     transform="matrix(4.4651164,0,0,4.4651164,-481.28384,-479.42647)"
     id="g4565"
     inkscape:label="lightgreeneye">
    <path
       style="color:#000000;font-style:normal;font-variant:normal;font-weight:normal;font-stretch:normal;font-size:medium;line-height:normal;font-family:sans-serif;font-variant-ligatures:normal;font-variant-position:normal;font-variant-caps:normal;font-variant-numeric:normal;font-variant-alternates:normal;font-feature-settings:normal;text-indent:0;text-align:start;text-decoration:none;text-decoration-line:none;text-decoration-style:solid;text-decoration-color:#000000;letter-spacing:normal;word-spacing:normal;text-transform:none;writing-mode:lr-tb;direction:ltr;text-orientation:mixed;dominant-baseline:auto;baseline-shift:baseline;text-anchor:start;white-space:normal;shape-padding:0;clip-rule:nonzero;display:inline;overflow:visible;visibility:visible;opacity:1;isolation:auto;mix-blend-mode:normal;color-interpolation:sRGB;color-interpolation-filters:linearRGB;solid-color:#000000;solid-opacity:1;vector-effect:none;fill:#9fffcb;fill-opacity:1;fill-rule:nonzero;stroke:none;stroke-width:6;stroke-linecap:butt;stroke-linejoin:miter;stroke-miterlimit:4;stroke-dasharray:none;stroke-dashoffset:0;stroke-opacity:1;color-rendering:auto;image-rendering:auto;shape-rendering:auto;text-rendering:auto;enable-background:accumulate"
       d="m 394.72656,477.01367 -11.56836,2.26172 c 8.75015,0.46868 15.64804,7.63581 15.64844,16.50781 4.9e-4,9.17791 -7.37483,16.55431 -16.55273,16.55469 -9.17859,5.3e-4 -16.55526,-7.37614 -16.55469,-16.55469 2.7e-4,-6.62002 3.84828,-12.28658 9.43164,-14.93945 l -11.5,2.25 c -2.47675,3.61963 -3.93144,7.98968 -3.93164,12.68945 -7.2e-4,12.42142 10.13323,22.55541 22.55469,22.55469 12.42058,-5.3e-4 22.55341,-10.13414 22.55273,-22.55469 -3.3e-4,-7.81378 -4.0124,-14.71997 -10.08008,-18.76953 z"
       transform="matrix(0.26458333,0,0,0.26458333,29.287423,3.4122662)"
       id="path4561"
       inkscape:connector-curvature="0" />
    <path
       inkscape:transform-center-y="-0.28044144"
       inkscape:transform-center-x="7.752382"
       style="display:inline;fill:#9fffcb;fill-opacity:1;stroke:none;stroke-width:1.52849793;stroke-miterlimit:4;stroke-dasharray:none;stroke-opacity:1"
       d="m 125.49809,131.23082 c 0.31057,-0.72598 6.82946,-3.4402 10.24419,-5.1603 1.69113,1.00698 2.92165,2.27687 3.33336,3.56517 l -14.37925,3.50291 c 0.0898,-0.27239 0.77591,-1.85479 0.8017,-1.90778 z"
       id="path4563"
       inkscape:connector-curvature="0"
       sodipodi:nodetypes="ccccc" />
  </g>
  <g
     inkscape:groupmode="layer"
     id="layer7"
     inkscape:label="chin"
     style="display:none;opacity:1">
    <path
       style="display:inline;opacity:1;fill:#1a7c6d;fill-opacity:1;stroke:none;stroke-width:2.24695134;stroke-miterlimit:4;stroke-dasharray:none;stroke-opacity:1"
       d="m 382.58984,463.23047 a 32.571104,32.571104 0 0 0 -32.57226,32.57226 32.571104,32.571104 0 0 0 32.57226,32.57032 32.571104,32.571104 0 0 0 32.57032,-32.57032 32.571104,32.571104 0 0 0 -32.57032,-32.57226 z m 0,6.51562 a 26.056883,26.056883 0 0 1 26.05664,26.05664 26.056883,26.056883 0 0 1 -26.05664,26.05665 26.056883,26.056883 0 0 1 -26.05859,-26.05665 26.056883,26.056883 0 0 1 26.05859,-26.05664 z"
       transform="scale(0.26458333)"
       id="path4596"
       inkscape:connector-curvature="0" />
  </g>
</svg>
